<svg width="24" height="24" viewBox="0 0 24 24" fill="none" xmlns="http://www.w3.org/2000/svg">
<g id="leaf-01">
<path id="Vector" d="M20.7243 2.805C22.5033 9.413 21.7943 13.677 19.9243 16.309C18.0553 18.94 15.1623 19.75 13.0003 19.75C11.7723 19.75 10.6183 19.421 9.62429 18.847C9.26629 18.639 9.14329 18.18 9.35129 17.822C9.55829 17.463 10.0173 17.341 10.3753 17.548C11.1473 17.994 12.0423 18.25 13.0003 18.25C14.8383 18.25 17.1953 17.56 18.7013 15.441C20.1013 13.47 20.8833 10.098 19.5983 4.488C18.3773 5.701 16.4663 7.262 13.1063 7.742C9.86129 8.206 7.75029 10.264 7.75029 13C7.75029 13.629 7.86029 14.231 8.06229 14.789C8.60729 14.6 9.19229 14.429 9.81829 14.272C12.8153 13.523 14.9263 11.643 16.3923 9.615C16.6353 9.28 17.1043 9.204 17.4403 9.447C17.7753 9.69 17.8513 10.159 17.6083 10.494C16.0013 12.715 13.6193 14.868 10.1823 15.727C7.96929 16.281 6.47329 16.992 5.47929 17.864C4.50629 18.719 3.96529 19.771 3.74029 21.123C3.67229 21.532 3.28529 21.808 2.8773 21.74C2.4683 21.671 2.19229 21.285 2.26029 20.876C2.53529 19.229 3.22329 17.849 4.49029 16.737C5.09429 16.206 5.81829 15.747 6.67029 15.349C6.39829 14.617 6.25029 13.825 6.25029 13C6.25029 9.306 9.13929 6.794 12.8943 6.258C16.2893 5.773 17.9143 4.082 19.0753 2.875C19.2123 2.732 19.3433 2.596 19.4703 2.47C19.6593 2.28 19.9353 2.206 20.1943 2.275C20.4523 2.345 20.6553 2.546 20.7243 2.805Z" fill="currentColor"/>
</g>
</svg>
